<?xml version="1.0" encoding="UTF-8"?>
<svg id="Capa_1" data-name="Capa 1" xmlns="http://www.w3.org/2000/svg" viewBox="0 0 2543.31 680.56">
  <g>
    <rect x="-136.57" y="238.33" width="633.79" height="99.99" rx="49.99" ry="49.99" transform="translate(-159.25 306.68) rotate(-61.07)"/>
    <rect x="56.53" y="307.62" width="475.47" height="99.99" rx="49.99" ry="49.99" transform="translate(-161.07 442.18) rotate(-61.07)"/>
    <rect x="249" y="375.64" width="320.04" height="99.99" rx="49.99" ry="49.99" transform="translate(-161.35 577.73) rotate(-61.07)"/>
    <rect x="441.34" y="443.37" width="165.06" height="99.99" rx="49.99" ry="49.99" transform="translate(-161.34 713.23) rotate(-61.07)"/>
  </g>
  <g>
    <g>
      <path d="m889.27,107.66h-20.53c-.67-2.9-1.44-7.56-1.7-10.59-5.56,9.48-15.66,12.57-28.52,12.57-30.65,0-43.45-25.16-43.45-53.63,0-31.43,17.21-55.84,50.42-55.84,29.23,0,41.96,15.64,43.94,33.39h-28.56c-1.42-5.39-4.52-11.96-16.22-11.96-14.23,0-19.38,13.93-19.38,34.03s5.38,32.69,19.58,32.69c12.12,0,15.83-8.78,15.83-19.07v-.79h-17.03v-21.05h45.64v60.26Z"/>
      <path d="m1244.92,67.09v40.57h-28.35V2.04h48.17c23.18,0,35.84,12.19,35.84,28.95,0,14.19-7.2,21.3-16.25,24.9,10.98,4.22,14.26,13.15,14.26,25.31v3.26c0,8.82.35,18.05,1.23,23.2h-27.94c-1.55-4.36-2.06-11.11-2.06-23.23v-2.99c0-11.04-3.62-14.35-14.85-14.35h-10.06Zm0-20.73h12.24c8.65,0,14.77-3.28,14.77-12.23,0-8.27-5.53-11.46-12.92-11.46h-14.09v23.69Z"/>
      <path d="m1653.4,2.04v68.46c0,9.33,2.52,17.81,14.89,17.81s14.48-8.12,14.48-17.81V2.04h29.35v67.46c0,24.61-12.39,40.14-44.34,40.14s-43.51-15.7-43.51-40.2V2.04h29.14Z"/>
      <path d="m2040.34,2.04h43.76c21.2,0,39.19,11.05,39.19,33.17s-16.83,34.38-40.88,34.38h-13.37v38.07h-28.7V2.04Zm28.7,46.64h10.47c9.6,0,14.61-4.17,14.61-13.39,0-8.56-5.37-12.41-14.21-12.41h-10.87v25.81Z"/>
      <path d="m2542.1,54.28c0,30.88-14.54,55.36-50.7,55.36s-48.84-24.64-48.84-55.45c0-27.5,14.79-54.02,50.49-54.02s49.05,25.54,49.05,54.11Zm-69.25-.21c0,20.26,5.96,34.29,19.64,34.29,14.82,0,19.43-12.91,19.43-34.35,0-18.63-4.46-32.52-19.78-32.52-14.02,0-19.29,12.93-19.29,32.58Z"/>
    </g>
    <g>
      <path d="m811.22,491l-19.33,77.63h-103.68l107.28-383.36h142.15l112.26,383.36h-109.87l-21.37-77.63h-107.45Zm90.03-82.38c-15.55-57.64-28.86-112.93-36.84-152.44h-1.54c-7.78,42.19-20.84,97.77-35.19,152.44h73.57Z"/>
      <path d="m1122.87,265.09h-98.95v-79.82h303.23v79.82h-98.36v303.54h-105.92v-303.54Z"/>
      <path d="m1373.14,185.27h158.84c76.95,0,142.26,40.1,142.26,120.39s-61.09,124.78-148.39,124.78h-48.53v138.19h-104.18V185.27Zm104.18,169.31h38.02c34.83,0,53.01-15.12,53.01-48.61,0-31.08-19.49-45.05-51.59-45.05h-39.44v93.66Z"/>
      <path d="m1716.5,374.65c0-49.52,0-82.18-.93-99.72h99.9c1.29,11.34,2.24,36.3,1.84,52.62,9.75-28.33,35.39-58.08,85.8-58.08v97c-61.94-1.29-84.09,16.52-84.09,78.18v123.99h-102.53v-193.98Z"/>
      <path d="m2226.41,417.96c0,82.94-40.45,156.86-150.31,156.86s-147.48-76.01-147.48-155.18c0-64.78,34.58-150.9,151.2-150.9s146.58,79.65,146.58,149.22Zm-192.76.81c0,60.44,14.45,85.76,45.25,85.76,28.62,0,42.84-26.1,42.84-85.42s-13.17-79.69-44.49-79.69c-28.56,0-43.6,24.28-43.6,79.35Z"/>
      <path d="m2351.4,274.93c22.9,94.65,38.99,170.88,42.91,209.81h1.94c7.05-40.88,26.87-136.17,43.07-209.81h101.55l-88.12,283.02c-32.56,106.02-63.53,122.46-133.48,122.46-11.1,0-29.17-1.32-41.83-3.19v-74.89c8.62,1.12,19.93,1.48,25.3,1.48,20.66,0,32.72-9.73,37.53-25.93l-98.59-302.95h109.73Z"/>
    </g>
  </g>
</svg>