<?xml version="1.0" encoding="UTF-8"?>
<svg id="Capa_1" data-name="Capa 1" xmlns="http://www.w3.org/2000/svg" viewBox="0 0 585.62 585.62">
  <defs>
    <style>
      .cls-1 {
        fill: #00a6e2;
      }

      .cls-2 {
        letter-spacing: -.02em;
      }

      .cls-3 {
        letter-spacing: 0em;
      }

      .cls-4 {
        letter-spacing: .04em;
      }

      .cls-5 {
        letter-spacing: -.02em;
      }

      .cls-6 {
        letter-spacing: 0em;
      }

      .cls-7 {
        font-family: AcuminConcept-Black, 'Acumin Variable Concept';
        font-size: 104.95px;
        font-variation-settings: 'wght' 800, 'wdth' 100, 'slnt' 0;
        font-weight: 800;
      }

      .cls-8 {
        font-family: AcuminConcept-Semibold, 'Acumin Variable Concept';
        font-size: 45.22px;
        font-variation-settings: 'wght' 600, 'wdth' 100, 'slnt' 0;
        font-weight: 600;
      }

      .cls-9 {
        letter-spacing: -.01em;
      }

      .cls-10 {
        letter-spacing: -.03em;
      }

      .cls-11 {
        letter-spacing: 0em;
      }

      .cls-12 {
        letter-spacing: 0em;
      }

      .cls-13 {
        letter-spacing: -.02em;
      }

      .cls-14 {
        letter-spacing: 0em;
      }

      .cls-15 {
        letter-spacing: -.01em;
      }

      .cls-16 {
        letter-spacing: .02em;
      }

      .cls-17 {
        letter-spacing: 0em;
      }

      .cls-18 {
        letter-spacing: 0em;
      }

      .cls-19 {
        letter-spacing: 0em;
      }

      .cls-20 {
        letter-spacing: 0em;
      }

      .cls-21 {
        letter-spacing: .02em;
      }
    </style>
  </defs>
  <rect class="cls-1" width="585.62" height="585.62"/>
  <text transform="translate(56.73 195.79)"><tspan class="cls-7"><tspan class="cls-20" x="0" y="0">2</tspan><tspan x="62.13" y="0">99</tspan><tspan class="cls-12" x="191" y="0">5</tspan><tspan x="254.39" y="0" xml:space="preserve"> C</tspan></tspan><tspan class="cls-8"><tspan class="cls-16" x="0" y="234.46">#</tspan><tspan class="cls-11" x="28.89" y="234.46">0</tspan><tspan class="cls-17" x="55.44" y="234.46">0A6E2</tspan></tspan><tspan class="cls-8"><tspan class="cls-19" x="0" y="288.73">R</tspan><tspan x="29.84" y="288.73">BG</tspan><tspan class="cls-5" x="93.51" y="288.73">(</tspan><tspan class="cls-10" x="108.93" y="288.73">0</tspan><tspan x="133.89" y="288.73">, 1</tspan><tspan class="cls-11" x="173.82" y="288.73">6</tspan><tspan class="cls-15" x="199.82" y="288.73">6</tspan><tspan x="224.83" y="288.73">, </tspan><tspan class="cls-21" x="247.26" y="288.73">2</tspan><tspan class="cls-6" x="272.63" y="288.73">2</tspan><tspan class="cls-13" x="297.13" y="288.73">6</tspan><tspan x="321.78" y="288.73">)</tspan></tspan><tspan class="cls-8"><tspan class="cls-18" x="0" y="342.99">C</tspan><tspan class="cls-3" x="31.47" y="342.99">M</tspan><tspan class="cls-15" x="71.36" y="342.99">Y</tspan><tspan x="98.26" y="342.99">K</tspan><tspan class="cls-4" x="128.24" y="342.99">(</tspan><tspan class="cls-14" x="146.33" y="342.99">7</tspan><tspan class="cls-9" x="168.53" y="342.99">5</tspan><tspan class="cls-17" x="193.36" y="342.99">, 1</tspan><tspan class="cls-9" x="233.29" y="342.99">5</tspan><tspan x="258.11" y="342.99">, </tspan><tspan class="cls-10" x="280.54" y="342.99">0</tspan><tspan x="305.5" y="342.99">, </tspan><tspan class="cls-2" x="327.93" y="342.99">0</tspan><tspan class="cls-17" x="353.3" y="342.99">)</tspan></tspan></text>
  <g>
    <path d="m141.11,83.67c-3.46-5.82-6.38-10.78-9.34-15.73-3.15-5.26-4.64-5.81-10.94-4.12v31.99h7.95v-19.53c3.78,6.26,7.11,11.9,10.59,17.45.6.95,1.71,2.03,2.72,2.19,2.12.34,4.33.1,6.7.1v-32.53h-7.67v20.17Z"/>
    <path d="m236.22,83.57c-3.92-6.54-7.35-12.35-10.91-18.08-.59-.94-1.71-1.98-2.72-2.13-2.11-.33-4.31-.1-6.64-.1v32.57h7.94v-19.56c3.26,5.42,6.15,10.23,9.05,15.05,3.18,5.27,4.51,5.78,10.9,4.2v-32.09h-7.62v20.15Z"/>
    <path d="m194.74,62.24c-9.75-.02-16.63,7.15-16.64,17.33,0,10.39,6.89,17.55,16.86,17.52,9.65-.03,16.8-7.45,16.74-17.38-.07-10.38-6.93-17.45-16.96-17.47Zm7.59,22.79c-1.35,3.29-4,5.03-7.55,5.07-5.53.06-8.99-5.17-8.31-12.36.56-5.91,4.59-9.31,9.94-8.38,4.31.75,6.85,4.71,7.06,10.67-.36,1.67-.5,3.44-1.14,5Z"/>
    <path d="m258.24,81.77h15.06v-6.15h-15.07v-6.19h16.08v-5.96h-24.48v32.32h25.96v-6.23h-17.56v-7.78Z"/>
    <path d="m87.82,74.57c.21-5.03-2.37-9.92-6.73-10.45-7.23-.89-14.58-.81-21.95-1.14v32.82h8.29v-10.09c4.38-.37,8.44-.4,12.36-1.12,4.72-.87,7.82-5.08,8.02-10.02Zm-12.04,4.36c-2.59.3-5.25.07-8.22.07v-9.57c2.73,0,5.34-.17,7.91.05,2.76.24,3.93,2.22,4,4.79.07,2.5-1.18,4.37-3.69,4.66Z"/>
    <path d="m99.7,63.19c-2.29-.05-3.21.85-3.95,2.84-3.37,9.1-6.9,18.14-10.34,27.21-.3.79-.44,1.65-.67,2.51q7.98.9,10.39-4.71h11.97c2.65,5.57,3.33,5.87,10.71,4.55-3.41-9-6.8-17.94-10.19-26.88-2.1-5.54-2.11-5.41-7.93-5.53Zm-2.65,21.53c1.27-4.24,2.48-8.24,4-13.32,1.62,4.93,2.92,8.89,4.37,13.32h-8.38Z"/>
    <path d="m152.23,69.85h8.67v25.9h8.44v-26.04c1.73,0,3.1.03,4.46,0,1.33-.04,2.66-.14,4.04-.21v-6h-25.62v6.36Z"/>
    <path d="m285.5,62.57c-4.09-.02-7.45,3.36-7.44,7.48.01,3.98,3.19,7.24,7.17,7.38,4.12.14,7.52-3.13,7.57-7.28.05-4.17-3.21-7.55-7.31-7.57Zm-.31,13.2c-3.2-.12-5.56-2.69-5.45-5.94.12-3.27,2.6-5.66,5.82-5.61,3.2.06,5.63,2.56,5.62,5.81,0,3.39-2.59,5.87-5.99,5.74Z"/>
    <path d="m287.95,70.82c.17-1.29.79-3.55.43-3.72-1.68-.79-3.64-1.01-5.38-1.41v8.42c.25,0,.51.02.76.02.26-1.08.52-2.17.83-3.47,1.29,1.42,2.31,2.54,3.32,3.66.2-.17.4-.35.6-.52-.42-.91-.85-1.82-1.27-2.72.24-.09.47-.17.71-.26Z"/>
  </g>
</svg>