<?xml version="1.0" encoding="UTF-8"?>
<svg id="Capa_2" data-name="Capa 2" xmlns="http://www.w3.org/2000/svg" viewBox="0 0 1700.24 97.94">
  <defs>
    <style>
      .cls-1 {
        fill: #0f0300;
      }

      .cls-2 {
        fill: #fdcb00;
      }
    </style>
  </defs>
  <g id="Capa_1-2" data-name="Capa 1">
    <g>
      <rect class="cls-2" width="1687.14" height="97.71"/>
      <polygon class="cls-1" points="25.62 0 13.14 15.49 42.83 15.49 56.17 0 25.62 0"/>
      <polygon class="cls-1" points="78.12 0 65.64 15.49 95.33 15.49 108.67 0 78.12 0"/>
      <polygon class="cls-1" points="130.9 0 118.42 15.49 148.11 15.49 161.45 0 130.9 0"/>
      <polygon class="cls-1" points="183.75 0 171.27 15.49 200.96 15.49 214.3 0 183.75 0"/>
      <polygon class="cls-1" points="236.24 0 223.76 15.49 253.45 15.49 266.79 0 236.24 0"/>
      <polygon class="cls-1" points="289.02 0 276.55 15.49 306.24 15.49 319.57 0 289.02 0"/>
      <polygon class="cls-1" points="343.81 0 331.34 15.49 361.02 15.49 374.36 0 343.81 0"/>
      <polygon class="cls-1" points="396.31 0 383.83 15.49 413.52 15.49 426.86 0 396.31 0"/>
      <polygon class="cls-1" points="448.42 0 435.94 15.49 465.63 15.49 478.97 0 448.42 0"/>
      <polygon class="cls-1" points="501.94 0 489.46 15.49 519.15 15.49 532.49 0 501.94 0"/>
      <polygon class="cls-1" points="554.44 0 541.96 15.49 571.65 15.49 584.99 0 554.44 0"/>
      <polygon class="cls-1" points="607.89 0 595.41 15.49 625.1 15.49 638.44 0 607.89 0"/>
      <polygon class="cls-1" points="660.07 0 647.59 15.49 677.28 15.49 690.62 0 660.07 0"/>
      <polygon class="cls-1" points="712.56 0 700.09 15.49 729.77 15.49 743.11 0 712.56 0"/>
      <polygon class="cls-1" points="766.01 0 753.54 15.49 783.22 15.49 796.56 0 766.01 0"/>
      <polygon class="cls-1" points="820.13 0 807.66 15.49 837.34 15.49 850.68 0 820.13 0"/>
      <polygon class="cls-1" points="872.63 0 860.15 15.49 889.84 15.49 903.18 0 872.63 0"/>
      <polygon class="cls-1" points="925.41 0 912.93 15.49 942.62 15.49 955.96 0 925.41 0"/>
      <polygon class="cls-1" points="982.16 0 969.68 15.49 999.37 15.49 1012.71 0 982.16 0"/>
      <polygon class="cls-1" points="1036.28 0 1023.8 15.49 1053.49 15.49 1066.83 0 1036.28 0"/>
      <polygon class="cls-1" points="1086.77 0 1074.29 15.49 1103.98 15.49 1117.32 0 1086.77 0"/>
      <polygon class="cls-1" points="1140.88 0 1128.4 15.49 1158.09 15.49 1171.43 0 1140.88 0"/>
      <polygon class="cls-1" points="1193.37 0 1180.89 15.49 1210.58 15.49 1223.92 0 1193.37 0"/>
      <polygon class="cls-1" points="1246.15 0 1233.68 15.49 1263.37 15.49 1276.7 0 1246.15 0"/>
      <polygon class="cls-1" points="1299.01 0 1286.53 15.49 1316.22 15.49 1329.56 0 1299.01 0"/>
      <polygon class="cls-1" points="1351.5 0 1339.02 15.49 1368.71 15.49 1382.05 0 1351.5 0"/>
      <polygon class="cls-1" points="1404.28 0 1391.8 15.49 1421.49 15.49 1434.83 0 1404.28 0"/>
      <polygon class="cls-1" points="1459.07 0 1446.59 15.49 1476.28 15.49 1489.62 0 1459.07 0"/>
      <polygon class="cls-1" points="1511.57 0 1499.09 15.49 1528.78 15.49 1542.12 0 1511.57 0"/>
      <polygon class="cls-1" points="1563.68 0 1551.2 15.49 1580.89 15.49 1594.23 0 1563.68 0"/>
      <polygon class="cls-1" points="1617.2 0 1604.72 15.49 1634.41 15.49 1647.75 0 1617.2 0"/>
      <polygon class="cls-1" points="1669.69 0 1657.21 15.49 1686.9 15.49 1700.24 0 1669.69 0"/>
      <polygon class="cls-1" points="25.62 82.45 13.14 97.94 42.83 97.94 56.17 82.45 25.62 82.45"/>
      <polygon class="cls-1" points="78.12 82.45 65.64 97.94 95.33 97.94 108.67 82.45 78.12 82.45"/>
      <polygon class="cls-1" points="130.9 82.45 118.42 97.94 148.11 97.94 161.45 82.45 130.9 82.45"/>
      <polygon class="cls-1" points="183.75 82.45 171.27 97.94 200.96 97.94 214.3 82.45 183.75 82.45"/>
      <polygon class="cls-1" points="236.24 82.45 223.76 97.94 253.45 97.94 266.79 82.45 236.24 82.45"/>
      <polygon class="cls-1" points="289.02 82.45 276.55 97.94 306.24 97.94 319.57 82.45 289.02 82.45"/>
      <polygon class="cls-1" points="343.81 82.45 331.34 97.94 361.02 97.94 374.36 82.45 343.81 82.45"/>
      <polygon class="cls-1" points="396.31 82.45 383.83 97.94 413.52 97.94 426.86 82.45 396.31 82.45"/>
      <polygon class="cls-1" points="448.42 82.45 435.94 97.94 465.63 97.94 478.97 82.45 448.42 82.45"/>
      <polygon class="cls-1" points="501.94 82.45 489.46 97.94 519.15 97.94 532.49 82.45 501.94 82.45"/>
      <polygon class="cls-1" points="554.44 82.45 541.96 97.94 571.65 97.94 584.99 82.45 554.44 82.45"/>
      <polygon class="cls-1" points="607.89 82.45 595.41 97.94 625.1 97.94 638.44 82.45 607.89 82.45"/>
      <polygon class="cls-1" points="660.07 82.45 647.59 97.94 677.28 97.94 690.62 82.45 660.07 82.45"/>
      <polygon class="cls-1" points="712.56 82.45 700.09 97.94 729.77 97.94 743.11 82.45 712.56 82.45"/>
      <polygon class="cls-1" points="766.01 82.45 753.54 97.94 783.22 97.94 796.56 82.45 766.01 82.45"/>
      <polygon class="cls-1" points="820.13 82.45 807.66 97.94 837.34 97.94 850.68 82.45 820.13 82.45"/>
      <polygon class="cls-1" points="872.63 82.45 860.15 97.94 889.84 97.94 903.18 82.45 872.63 82.45"/>
      <polygon class="cls-1" points="925.41 82.45 912.93 97.94 942.62 97.94 955.96 82.45 925.41 82.45"/>
      <polygon class="cls-1" points="982.16 82.45 969.68 97.94 999.37 97.94 1012.71 82.45 982.16 82.45"/>
      <polygon class="cls-1" points="1036.28 82.45 1023.8 97.94 1053.49 97.94 1066.83 82.45 1036.28 82.45"/>
      <polygon class="cls-1" points="1086.77 82.45 1074.29 97.94 1103.98 97.94 1117.32 82.45 1086.77 82.45"/>
      <polygon class="cls-1" points="1140.88 82.45 1128.4 97.94 1158.09 97.94 1171.43 82.45 1140.88 82.45"/>
      <polygon class="cls-1" points="1193.37 82.45 1180.89 97.94 1210.58 97.94 1223.92 82.45 1193.37 82.45"/>
      <polygon class="cls-1" points="1246.15 82.45 1233.68 97.94 1263.37 97.94 1276.7 82.45 1246.15 82.45"/>
      <polygon class="cls-1" points="1299.01 82.45 1286.53 97.94 1316.22 97.94 1329.56 82.45 1299.01 82.45"/>
      <polygon class="cls-1" points="1351.5 82.45 1339.02 97.94 1368.71 97.94 1382.05 82.45 1351.5 82.45"/>
      <polygon class="cls-1" points="1404.28 82.45 1391.8 97.94 1421.49 97.94 1434.83 82.45 1404.28 82.45"/>
      <polygon class="cls-1" points="1459.07 82.45 1446.59 97.94 1476.28 97.94 1489.62 82.45 1459.07 82.45"/>
      <polygon class="cls-1" points="1511.57 82.45 1499.09 97.94 1528.78 97.94 1542.12 82.45 1511.57 82.45"/>
      <polygon class="cls-1" points="1563.68 82.45 1551.2 97.94 1580.89 97.94 1594.23 82.45 1563.68 82.45"/>
      <polygon class="cls-1" points="1617.2 82.45 1604.72 97.94 1634.41 97.94 1647.75 82.45 1617.2 82.45"/>
      <polygon class="cls-1" points="1669.69 82.45 1657.21 97.94 1686.9 97.94 1700.24 82.45 1669.69 82.45"/>
    </g>
  </g>
</svg>